<svg width="500" height="500" viewBox="0 0 500 500" fill="none" xmlns="http://www.w3.org/2000/svg">
<path d="M143.219 439.717C150.666 444.987 153.496 451.772 152.056 460.465C151.683 462.718 152 465.086 152 467.797C194.592 467.797 236.996 467.797 279.7 467.797C279.7 471.919 279.7 475.661 279.7 479.705C233.406 479.705 187.001 479.705 140.215 479.705C140.215 475.728 140.215 471.637 140.215 465.848C136.522 468.496 133.723 470.278 131.178 472.368C121.854 480.027 111.341 484.86 99.2665 485.976C94.0329 486.459 88.7773 486.745 83.5256 486.987C60.1966 488.061 38.5211 465.577 38.7474 442.443C38.9358 423.173 50.2557 406.623 67.9282 399.599C77.6951 395.717 87.647 396.329 97.5818 399.205C99.2406 399.685 100.987 399.863 102.271 400.103C99.7467 390.034 96.5396 380.391 95.0781 370.49C93.7347 361.39 93.9289 352.007 94.0574 342.757C94.2583 328.289 99.432 315.036 104.967 301.918C111.014 287.589 118.707 274.276 128.376 262.051C139.32 248.216 152.909 237.651 168.952 230.82C179.198 226.457 190.145 222.921 201.119 221.242C232.935 216.373 265.085 220.21 297.06 218.912C313.663 218.238 329.951 215.541 343.649 204.99C353.059 197.741 360.904 188.978 367.015 178.74C369.487 174.599 371.663 170.263 374.376 166.291C376.776 162.778 376.488 159.926 374.184 156.47C368.643 148.162 363.443 139.627 357.791 130.687C362.856 126.58 368.718 121.794 374.616 117.052C384.376 109.205 394.207 101.446 403.92 93.5408C413.532 85.7174 423.402 78.1555 432.471 69.737C439.973 62.7725 446.488 54.758 447.992 43.9343C448.997 36.705 441.972 30.1039 433.432 28.8798C415.619 26.3264 402.271 34.5981 389.883 45.6323C368.043 65.0845 351.1 88.5778 334.904 112.661C331.865 117.18 329.296 122.017 327.052 125.794C321.699 122.567 316.574 118.194 310.647 116.157C295.837 111.065 281.86 114.968 270.29 124.527C255.743 136.546 243.091 150.621 232.92 166.66C225.771 177.931 228.276 183.581 238.708 188.869C240.542 189.798 242.607 190.326 244.616 190.839C246.945 191.434 249.33 191.808 251.686 192.277C251.344 196.22 251.013 200.051 250.651 204.223C245.389 202.78 240.225 201.605 235.224 199.943C224.188 196.275 215.916 186.089 217.269 176.065C218.075 170.089 220.697 163.928 223.983 158.798C232.959 144.784 244.351 132.712 256.29 121.123C270.503 107.328 287.401 101.374 306.939 103.138C311.294 103.531 315.675 105.254 319.703 107.106C322.691 108.481 324.323 107.677 325.926 105.454C336.135 91.2978 345.672 76.594 356.696 63.1044C369.79 47.0832 384.156 31.8588 402.813 22.2101C418.547 14.0727 435.029 14.3258 450.638 23.3499C458.172 27.7055 461.654 41.0734 458.504 50.9921C454.258 64.3568 445.376 74.3235 434.788 83.0321C427.974 88.6366 421.311 94.4258 414.474 100.002C403.37 109.057 392.187 118.015 381.017 126.989C379.13 128.505 376.829 129.637 375.331 131.451C374.611 132.323 374.746 134.756 375.466 135.83C384.304 148.993 390.931 163.171 396.087 178.148C402.542 196.895 404.353 216.263 402.811 235.74C400.872 260.224 392.161 282.743 378.992 303.398C370.672 316.446 361.941 329.252 352.916 341.823C347.6 349.226 342.008 356.688 335.306 362.76C329.917 367.641 329.888 372.391 331.09 378.443C334.52 395.71 337.694 413.026 341.021 430.313C341.627 433.46 342.481 436.559 343.059 439C351.707 439 360.104 438.74 368.478 439.07C377.549 439.428 386.464 441.051 394.741 444.998C406.613 450.659 414.994 461.545 412.724 479.729C390.687 479.729 368.615 479.729 346.271 479.729C346.271 476.019 346.271 472.279 346.271 468.147C363.666 468.147 381.088 468.147 398.787 468.147C399.553 463.182 397.668 459.654 393.622 458.078C386.647 455.362 379.5 451.781 372.259 451.348C359.75 450.601 347.114 451.987 333.611 452.514C329.19 429.362 324.506 404.834 319.68 379.564C310.03 385.305 300.663 390.877 290.4 396.983C289.412 392.636 288.484 389.558 288.134 386.415C288.027 385.455 289.274 383.827 290.299 383.337C307.067 375.327 319.548 362.334 331.845 348.85C347.679 331.487 360.325 311.909 372.293 291.934C381.315 276.878 388.033 260.603 389.986 242.824C390.753 235.839 391.979 228.822 391.866 221.839C391.63 207.354 389.158 193.155 384.121 179.492C383.792 178.597 383.107 177.833 382.588 177.008C381.853 177.719 381.007 178.347 380.4 179.155C373.491 188.342 367.391 198.285 359.553 206.59C348.082 218.743 333.487 226.141 316.667 227.909C302.803 229.366 288.867 230.413 274.939 230.866C264.376 231.21 253.771 230.002 243.189 230.083C229.541 230.186 215.898 230.886 201.845 231.342C203.266 240.38 207.42 246.972 211.92 253.408C218.337 262.586 227.453 268.53 236.739 274.325C250.767 283.079 261.012 294.966 267.069 310.527C271.309 321.42 273.133 332.744 271.739 344.098C270.638 353.068 268.169 362.168 264.603 370.478C256.832 388.586 245.689 404.727 232.26 419.171C223.113 429.008 213.655 438.556 204.265 448.165C203.061 449.397 201.433 450.214 199.713 451.426C197.362 448.579 195.194 445.955 192.183 442.309C195.639 439.184 199.139 435.936 202.729 432.79C220.533 417.184 235.32 399.013 247.507 378.818C254.958 366.472 260.735 352.979 260.605 338.416C260.397 315.115 250.347 296.425 230.151 284.076C214.227 274.339 201.289 262.015 193.399 244.863C192.8 243.562 192.433 242.152 192.006 240.778C191.577 239.395 191.208 237.994 190.592 235.825C188.349 236.259 185.769 236.373 183.492 237.261C168.248 243.209 154.384 251.222 143.029 263.366C130.125 277.166 120.956 293.12 113.974 310.522C108.433 324.329 104.645 338.428 104.959 353.48C105.25 367.435 108.575 380.634 113.836 393.468C120.203 409.002 129.051 422.956 140.056 435.589C141.114 436.804 142.005 438.164 143.219 439.717ZM124.438 435.952C120.151 429.341 115.933 422.682 111.504 416.167C110.79 415.117 109.216 414.394 107.901 414.053C102.307 412.602 96.6797 411.269 91.0313 410.046C83.0698 408.322 75.3359 408.513 67.9009 412.525C55.7323 419.092 49.4362 431.503 50.977 446.03C52.4478 459.898 60.1515 469.032 72.9815 473.213C78.7159 475.082 85.2488 474.81 91.4311 474.939C111.057 475.347 124.516 463.921 137.299 451.115C132.96 445.955 128.965 441.203 124.438 435.952Z" fill="white"/>
</svg>
